<?xml version="1.0" encoding="utf-8"?>
<!-- Generator: Adobe Illustrator 24.1.2, SVG Export Plug-In . SVG Version: 6.00 Build 0)  -->
<svg version="1.1" id="Capa_1" xmlns="http://www.w3.org/2000/svg" xmlns:xlink="http://www.w3.org/1999/xlink" x="0px" y="0px"
	 viewBox="0 0 566.9 283.5" style="enable-background:new 0 0 566.9 283.5;" xml:space="preserve">
<style type="text/css">
	.st0{opacity:0.49;fill:#FFFFFF;}
	.st1{opacity:0.49;}
	.st2{fill:#DCF6E9;fill-opacity:0.36;}
	.st3{fill:#B9EDD4;fill-opacity:0.36;}
	.st4{fill:#97E4BE;fill-opacity:0.36;}
	.st5{fill:#74DBA9;fill-opacity:0.36;}
	.st6{fill:#51D293;fill-opacity:0.36;}
	.st7{fill:#FFFFFF;fill-opacity:0.36;}
</style>
<rect y="0" class="st0" width="566.9" height="283.5"/>
<g class="st1">
	<path class="st2" d="M172.2,250.1c-38.7-7.7-79.2-11.4-118.8-6.9c-18.1,2-36,5.9-53.4,11.8v28.4h299
		c-41.1-11.8-81.8-24.1-123.2-32.7C174.6,250.5,173.4,250.3,172.2,250.1z"/>
	<path class="st3" d="M566.9,0H0v255c17.4-6,35.3-9.9,53.4-11.9c39.6-4.5,80.1-0.9,118.8,6.9c1.2,0.2,2.4,0.5,3.6,0.7
		c41.4,8.5,82.1,20.9,123.2,32.7h267.9V0z"/>
	<path class="st4" d="M169.5,205.9c1.1,0.3,2.3,0.6,3.4,0.9c69.5,18.6,137.7,47.3,210.3,62.6c61.7,13,123.8,10.3,183.8-3.6V0H0
		v203.7c18.5-6.2,37.7-9.8,57.1-10.9C95.1,190.4,133.1,196.4,169.5,205.9z"/>
	<path class="st5" d="M0,0v152.1c19.7-6.5,40.2-9.7,60.7-9.8c36.4-0.3,72,8,106.1,19.3c1.1,0.4,2.1,0.7,3.2,1.1
		c65.1,22,129.6,51.8,199.3,68.1c66.2,15.5,133.3,12.2,197.7-4.5V0H0z"/>
	<path class="st6" d="M64.4,91.9c34.8,2.1,68,12.5,99.7,25.5c1,0.4,1.9,0.8,2.9,1.2c60.6,25.4,121.4,56.2,188.3,73.6
		c70.4,18.4,142.9,14.5,211.6-5.2V0H0v100.3C20.9,93.4,42.7,90.6,64.4,91.9z"/>
	<path class="st5" d="M566.9,0H0v48.3c22.1-7.4,45.2-9.7,68.1-6.8c33.2,4.3,64,16.9,93.3,31.7c0.9,0.5,1.8,0.9,2.7,1.4
		c56.1,28.7,113.3,60.6,177.3,79.1C416,175.3,494,171.1,567,147.8L566.9,0L566.9,0z"/>
	<path class="st4" d="M161.2,30.6c51.7,32.1,105.1,64.8,166.3,84.6c73.9,23.9,152.8,21.5,226-1.9c4.5-1.5,9-3,13.5-4.6V0H102.1
		c19.8,7.5,38.5,17.9,56.6,29.1C159.5,29.6,160.3,30.1,161.2,30.6z"/>
	<path class="st3" d="M566.9,0H176.5c41.8,30.4,86.3,58.3,137.1,76.6c68,24.5,141.7,26.5,210.8,7.5c14.5-4,28.7-8.9,42.6-14.8
		L566.9,0L566.9,0z"/>
	<path class="st2" d="M495.2,54.9c16.7-3.8,33.2-9,49.1-15.5c7.7-3.2,15.2-6.7,22.6-10.5V0H228c22.3,14.8,46,27.7,71.6,38.1
		C361.6,63.1,430.2,69.5,495.2,54.9z"/>
	<path class="st7" d="M466.1,25.7c26.7-4.5,52.8-13.1,76.8-25.7H286.7C342.6,25.2,405.6,35.8,466.1,25.7z"/>
</g>
</svg>
